<?xml version="1.0" encoding="UTF-8" ?>
<!DOCTYPE svg PUBLIC "-//W3C//DTD SVG 1.1//EN" "http://www.w3.org/Graphics/SVG/1.1/DTD/svg11.dtd">
<svg width="85pt" height="52pt" viewBox="0 0 85 52" version="1.1" xmlns="http://www.w3.org/2000/svg">
<g id="#d9a522ff">
<path fill="#d9a522" opacity="1.00" d=" M 42.42 1.33 C 44.46 0.44 45.86 2.64 47.36 3.63 C 55.03 10.31 62.88 16.80 70.74 23.27 C 72.04 24.38 74.24 26.48 72.15 28.01 C 64.14 34.71 56.05 41.32 48.22 48.23 C 46.56 49.86 44.35 50.66 42.19 51.38 C 42.07 47.27 42.03 43.15 42.02 39.04 C 32.70 38.92 23.37 39.09 14.05 38.96 C 14.06 30.39 13.79 21.81 14.23 13.25 C 23.48 12.80 32.75 13.25 42.00 13.01 C 42.05 9.11 41.85 5.19 42.42 1.33 M 45.15 5.81 C 45.01 9.16 44.91 12.50 44.81 15.85 C 35.56 16.24 26.30 15.76 17.04 16.06 C 16.88 22.93 16.82 29.81 17.16 36.69 C 26.40 36.71 35.65 36.35 44.89 36.82 C 44.95 40.19 45.02 43.56 45.10 46.93 C 53.37 40.14 61.59 33.27 69.73 26.31 C 61.66 19.35 53.59 12.34 45.15 5.81 Z" />
</g>
<g id="#323445ff">
<path fill="#323445" opacity="1.00" d=" M 45.15 5.81 C 53.59 12.34 61.66 19.35 69.73 26.31 C 61.59 33.27 53.37 40.14 45.10 46.93 C 45.02 43.56 44.95 40.19 44.89 36.82 C 35.65 36.35 26.40 36.71 17.16 36.69 C 16.82 29.81 16.88 22.93 17.04 16.06 C 26.30 15.76 35.56 16.24 44.81 15.85 C 44.91 12.50 45.01 9.16 45.15 5.81 Z" />
</g>
</svg>
