<?xml version="1.0" encoding="UTF-8" ?>
<!DOCTYPE svg PUBLIC "-//W3C//DTD SVG 1.1//EN" "http://www.w3.org/Graphics/SVG/1.1/DTD/svg11.dtd">
<svg width="1600pt" height="1000pt" viewBox="0 0 1600 1000" version="1.1" xmlns="http://www.w3.org/2000/svg">
<g id="#dea71cff">
<path fill="#dea71c" opacity="1.00" d=" M 853.78 94.85 C 855.94 92.27 858.10 89.48 861.27 88.09 C 854.79 100.42 848.13 113.41 848.49 127.75 C 848.02 124.99 849.40 121.99 848.09 119.40 C 847.92 124.77 845.36 129.61 845.20 134.97 C 844.16 138.24 843.28 141.56 843.62 145.03 C 843.94 149.50 841.31 153.50 841.63 157.95 C 841.67 170.63 841.62 183.31 841.62 196.00 C 841.65 199.17 841.35 202.44 842.41 205.50 C 844.03 210.19 843.28 215.19 843.74 220.04 C 845.52 227.26 845.83 234.71 847.55 241.95 C 851.04 258.66 855.12 275.29 860.92 291.36 C 863.08 299.16 865.72 306.84 869.22 314.13 C 870.93 320.87 873.94 327.14 876.91 333.40 C 878.70 340.33 883.08 346.17 885.38 352.91 C 886.88 357.69 889.41 362.05 891.59 366.53 C 898.39 379.76 904.65 393.27 911.79 406.33 C 919.05 417.18 923.25 429.74 930.58 440.53 C 937.02 452.86 942.97 465.46 949.30 477.86 C 952.60 484.94 956.85 491.63 959.23 499.11 C 961.16 504.68 964.76 509.52 966.41 515.19 C 967.96 520.19 970.91 524.57 972.99 529.34 C 973.73 531.52 973.92 533.91 975.17 535.90 C 977.85 539.92 978.32 544.89 980.90 548.99 C 983.24 556.27 986.34 563.32 988.07 570.79 C 989.80 575.68 991.37 580.63 992.07 585.78 C 993.85 590.42 993.50 595.49 995.26 600.15 C 996.11 610.97 995.36 621.86 995.59 632.71 C 1000.72 633.61 999.92 627.66 1001.44 624.64 C 1005.30 617.24 1005.59 608.73 1008.03 600.88 C 1008.65 595.62 1008.13 590.28 1008.29 585.00 C 1009.06 572.20 1004.41 559.94 1000.06 548.12 C 1005.47 547.81 1009.49 552.34 1014.82 552.71 C 1019.94 554.53 1025.39 554.14 1030.65 555.17 C 1036.20 554.31 1041.92 554.20 1047.44 555.40 C 1056.30 557.14 1065.38 555.75 1074.32 556.58 C 1084.07 558.86 1094.70 559.74 1103.02 565.86 C 1110.58 570.78 1115.67 578.58 1118.58 587.01 C 1118.63 588.63 1117.68 590.03 1117.13 591.50 C 1107.90 588.52 1098.04 587.97 1089.08 584.08 C 1086.16 582.65 1083.38 584.87 1080.84 586.05 C 1078.46 587.11 1077.19 589.67 1077.60 592.21 C 1080.96 594.94 1085.37 594.29 1089.40 594.59 C 1096.80 594.94 1104.28 593.97 1111.61 595.37 C 1115.74 595.89 1120.00 594.54 1124.05 595.93 C 1133.28 598.56 1142.65 602.58 1148.80 610.27 C 1152.90 615.61 1157.60 621.45 1157.43 628.55 C 1155.12 629.12 1153.58 627.29 1151.93 626.10 C 1147.67 622.70 1142.38 620.84 1137.14 619.63 C 1129.45 619.20 1121.69 619.14 1114.02 619.72 C 1092.64 625.23 1072.14 633.94 1053.22 645.28 C 1045.82 649.28 1039.93 655.42 1032.94 660.04 C 1027.95 663.24 1024.27 667.98 1020.03 672.03 C 1017.09 675.11 1013.28 677.22 1010.53 680.49 C 1005.49 687.08 999.40 692.78 993.42 698.49 C 987.44 702.44 982.73 707.93 976.70 711.79 C 969.38 717.93 960.71 721.99 952.44 726.63 C 940.95 731.73 928.89 736.67 916.12 736.58 C 918.00 733.02 921.75 731.27 924.56 728.58 C 929.18 724.87 932.73 720.09 937.07 716.09 C 951.49 700.25 962.68 681.41 969.05 660.91 C 971.84 653.52 972.18 645.61 974.17 638.04 C 974.14 628.25 975.51 618.16 972.97 608.59 C 970.60 590.18 962.87 572.96 953.93 556.86 C 948.80 545.56 941.26 535.63 934.82 525.08 C 928.02 516.47 923.01 506.59 915.84 498.27 C 904.92 481.16 892.02 465.42 879.37 449.59 C 866.04 432.64 852.06 416.24 838.57 399.42 C 834.29 395.28 831.65 389.75 830.03 384.09 C 825.29 369.12 819.53 354.44 815.73 339.19 C 812.77 329.95 811.28 320.30 808.71 310.95 C 808.50 306.12 806.61 301.58 806.37 296.77 C 806.08 291.77 804.25 286.99 804.42 281.94 C 804.72 277.81 802.41 274.08 802.59 269.99 C 802.21 252.00 802.08 233.99 802.62 216.00 C 802.63 213.87 803.63 211.93 804.02 209.87 C 805.51 192.37 810.08 175.27 815.78 158.70 C 823.49 134.90 837.80 113.87 853.78 94.85 Z" />
<path fill="#dea71c" opacity="1.00" d=" M 670.68 132.82 C 672.38 129.46 672.58 124.67 676.66 123.19 C 675.26 130.05 676.04 137.11 674.55 143.95 C 673.12 150.55 673.36 157.40 674.70 164.00 C 676.52 170.99 674.42 178.40 677.08 185.25 C 677.83 193.43 680.60 201.22 682.17 209.25 C 685.61 219.44 687.93 230.02 692.37 239.87 C 697.58 255.13 705.05 269.48 712.31 283.86 C 723.50 303.26 735.56 322.26 749.23 339.99 C 750.88 343.48 754.25 345.65 756.13 349.00 C 758.33 352.69 761.83 355.36 764.06 359.04 C 766.70 363.29 770.89 366.25 773.49 370.54 C 776.86 375.82 782.31 379.29 785.65 384.59 C 791.45 392.69 799.88 398.42 805.59 406.58 C 808.76 410.67 812.89 413.88 816.12 417.92 C 822.96 425.73 831.30 432.15 837.64 440.41 C 841.62 445.38 846.48 449.55 850.57 454.43 C 854.30 458.72 858.91 462.19 862.31 466.78 C 865.87 471.48 869.82 475.86 873.94 480.07 C 877.10 484.85 881.11 488.94 884.97 493.13 C 887.15 496.56 889.67 499.72 892.50 502.64 C 894.96 506.40 897.97 509.74 900.99 513.05 C 911.78 527.16 922.75 541.20 931.68 556.59 C 933.96 561.77 937.82 566.02 939.98 571.26 C 943.45 580.06 947.46 588.70 949.43 598.02 C 949.80 600.78 950.38 603.51 951.13 606.19 C 952.22 610.34 951.02 614.72 952.15 618.87 C 952.54 620.89 953.35 622.86 953.38 624.96 C 952.93 627.97 951.67 630.86 951.66 633.95 C 951.91 645.35 948.60 656.41 944.85 667.06 C 940.11 680.20 933.56 692.78 924.99 703.85 C 921.88 708.67 917.51 712.49 914.41 717.32 C 910.72 721.65 906.63 725.66 902.37 729.41 C 896.83 733.15 892.27 738.12 886.53 741.57 C 879.37 746.21 872.64 751.62 864.75 755.01 C 858.33 757.98 852.32 761.95 845.47 763.87 C 833.63 768.93 820.98 771.76 808.46 774.51 C 802.90 776.36 796.88 774.84 791.26 776.36 C 786.99 777.54 782.47 777.75 778.12 777.07 C 776.81 776.94 776.16 776.22 776.17 774.91 C 781.40 774.80 785.83 771.61 790.17 769.01 C 794.20 765.44 799.14 762.75 802.10 758.11 C 809.90 749.50 814.84 738.75 818.49 727.83 C 821.44 719.53 820.34 710.58 820.70 701.96 C 821.36 689.50 816.73 677.63 812.51 666.15 C 809.45 660.00 806.82 653.58 802.65 648.07 C 800.34 643.34 796.96 639.31 793.69 635.24 C 789.35 628.72 783.35 623.63 777.96 618.04 C 773.36 613.30 768.74 608.52 763.22 604.85 C 755.81 598.13 747.41 592.65 739.44 586.63 C 731.74 580.50 723.09 575.73 715.18 569.90 C 697.87 558.16 680.44 546.30 665.41 531.67 C 660.95 528.11 657.29 523.73 653.50 519.50 C 646.96 513.55 642.29 505.97 636.90 499.04 C 634.03 495.42 632.33 491.06 629.55 487.39 C 626.18 482.15 623.91 476.31 620.93 470.87 C 616.08 462.13 613.62 452.39 610.35 443.02 C 607.82 435.86 606.32 428.41 604.67 421.02 C 604.25 418.06 604.45 415.01 603.43 412.17 C 601.14 405.66 603.04 398.67 601.95 392.00 C 601.20 387.33 602.70 382.66 601.80 378.00 C 602.59 370.51 602.00 362.97 602.72 355.48 C 603.41 355.43 604.80 355.31 605.49 355.26 C 605.82 359.39 604.96 363.70 606.36 367.70 C 608.07 371.93 607.22 376.66 609.00 380.88 C 610.33 387.52 612.22 394.04 614.68 400.35 C 618.15 407.74 620.63 415.59 624.71 422.69 C 626.83 425.90 628.95 429.12 630.67 432.57 C 635.19 440.44 640.71 447.67 646.16 454.91 C 648.83 459.82 653.70 462.88 656.87 467.41 C 663.17 475.94 671.46 482.71 679.55 489.45 C 684.10 494.65 690.18 498.09 695.11 502.87 C 707.37 512.44 720.22 521.22 733.12 529.91 C 741.92 535.84 751.30 540.86 759.92 547.05 C 763.30 549.10 766.34 551.93 770.31 552.79 C 770.82 551.24 770.71 549.64 769.27 548.68 C 761.64 542.02 754.69 534.63 747.43 527.57 C 741.99 522.63 738.13 516.28 732.66 511.35 C 728.43 505.91 722.84 501.71 718.93 496.03 C 715.08 491.23 710.47 487.06 707.02 481.95 C 704.01 477.67 699.84 474.37 696.99 469.98 C 691.38 463.47 686.40 456.45 681.37 449.49 C 678.61 445.55 675.28 442.00 673.19 437.63 C 667.10 429.84 662.73 420.94 656.97 412.91 C 652.02 402.21 644.64 392.73 640.76 381.52 C 638.31 375.98 635.87 370.45 633.04 365.10 C 631.40 360.36 629.99 355.52 627.96 350.93 C 625.78 346.57 625.07 341.70 623.58 337.11 C 620.62 327.90 618.24 318.52 616.51 309.01 C 616.24 304.91 614.32 301.13 614.25 297.01 C 614.11 294.44 613.45 291.94 612.86 289.45 C 611.65 284.38 612.93 279.10 611.81 274.03 C 611.37 271.36 610.39 268.78 610.54 266.05 C 610.72 259.35 610.37 252.64 610.59 245.95 C 611.00 242.96 612.35 240.12 612.30 237.06 C 612.54 232.38 611.60 227.52 613.22 223.00 C 614.60 218.68 614.00 214.01 615.68 209.75 C 616.08 205.01 618.05 200.67 618.64 195.98 C 619.50 196.39 619.99 197.07 620.10 198.03 C 620.86 202.33 621.74 206.64 621.62 211.02 C 621.43 216.12 623.60 220.92 623.66 226.00 C 626.14 240.81 630.18 255.30 633.83 269.86 C 635.27 274.94 637.45 279.80 638.35 285.03 C 642.99 297.56 647.38 310.21 652.64 322.50 C 657.20 331.07 660.93 340.03 665.65 348.51 C 669.31 355.18 671.87 362.48 676.57 368.55 C 679.85 375.36 684.74 381.20 688.38 387.82 C 693.54 394.68 698.04 402.00 703.10 408.93 C 707.04 412.76 709.56 417.73 713.44 421.62 C 716.51 425.83 719.62 430.02 723.52 433.53 C 726.85 437.50 729.90 441.73 733.75 445.25 C 740.33 451.64 746.56 458.40 753.29 464.63 C 761.41 470.00 767.25 478.12 775.44 483.45 C 778.36 485.17 780.53 489.29 784.42 488.37 C 784.93 485.26 781.58 483.29 780.04 480.95 C 775.07 475.83 771.33 469.71 766.31 464.65 C 762.58 460.95 760.40 456.02 756.49 452.48 C 750.48 444.81 744.39 437.18 738.62 429.31 C 733.66 423.48 729.92 416.76 725.13 410.80 C 715.42 397.25 706.53 383.13 697.95 368.86 C 695.27 362.74 691.06 357.49 688.19 351.48 C 684.84 344.72 681.18 338.08 678.63 330.96 C 670.53 313.20 664.14 294.62 659.82 275.58 C 657.18 267.68 657.11 259.18 654.89 251.17 C 653.91 245.45 654.79 239.53 652.75 233.98 C 652.99 225.05 651.16 215.93 653.32 207.14 C 652.83 203.95 652.07 200.65 653.36 197.53 C 654.80 193.66 653.93 189.51 654.54 185.53 C 656.32 179.00 657.07 172.25 658.78 165.71 C 660.34 161.42 661.32 156.97 662.67 152.62 C 665.52 146.09 667.63 139.27 670.68 132.82 Z" />
<path fill="#dea71c" opacity="1.00" d=" M 761.60 157.73 C 764.25 152.69 766.34 147.25 770.08 142.88 C 773.07 145.74 769.58 149.57 769.73 152.99 C 769.93 157.12 768.69 161.02 767.74 164.96 C 767.48 172.01 768.01 179.19 765.82 186.02 C 765.38 202.01 765.76 218.04 765.62 234.05 C 765.37 238.13 767.47 241.86 767.51 245.91 C 767.74 249.62 767.53 253.35 767.61 257.07 C 767.57 260.46 769.63 263.48 769.58 266.89 C 769.85 269.79 769.15 272.87 770.37 275.62 C 772.77 280.00 770.38 285.34 773.20 289.60 C 773.94 296.84 775.63 304.02 777.42 311.11 C 778.25 318.11 782.27 324.48 781.82 331.69 C 776.84 328.19 775.02 322.08 771.46 317.38 C 768.89 312.10 765.16 307.51 762.57 302.24 C 758.68 295.02 754.37 288.01 750.83 280.60 C 748.60 274.35 745.65 268.39 742.74 262.43 C 741.89 259.04 740.64 255.80 738.86 252.80 C 736.60 244.88 740.51 236.96 740.41 229.00 C 740.92 224.34 742.54 219.84 742.39 215.10 C 746.29 202.16 748.08 188.48 753.90 176.14 C 756.28 169.92 758.46 163.61 761.60 157.73 Z" />
<path fill="#dea71c" opacity="1.00" d=" M 765.93 711.96 C 773.88 702.65 780.74 692.50 788.07 682.72 C 788.93 684.64 789.93 686.74 789.03 688.87 C 787.59 693.14 787.45 697.63 787.18 702.09 C 786.91 700.74 786.70 699.39 786.51 698.05 C 786.69 703.53 785.14 708.85 783.99 714.16 C 782.62 723.19 779.43 731.79 777.15 740.61 C 775.24 746.72 773.90 753.03 771.28 758.91 C 769.31 763.20 768.55 767.95 766.28 772.12 C 764.02 776.15 763.43 780.87 761.01 784.84 C 755.47 795.03 751.22 805.93 744.77 815.62 C 738.52 826.74 730.74 836.91 722.98 847.00 C 720.00 850.01 717.12 853.13 714.38 856.37 C 703.02 868.87 689.95 879.70 675.89 889.00 C 666.55 894.60 657.41 900.78 646.96 904.18 C 639.67 907.65 631.81 909.65 623.96 911.36 C 618.82 911.41 614.06 913.85 608.90 913.63 C 593.69 913.60 578.26 914.56 563.38 910.78 C 559.28 909.51 554.91 909.58 550.87 908.11 C 539.19 904.90 528.06 900.05 516.91 895.36 C 519.62 895.52 522.29 895.04 524.97 894.68 C 537.62 894.11 550.32 895.26 562.94 894.04 C 568.66 891.81 574.92 893.14 580.72 891.19 C 603.98 886.21 626.23 876.47 645.40 862.35 C 647.52 860.49 649.28 858.25 651.46 856.45 C 660.98 849.76 668.36 840.51 674.62 830.79 C 674.31 830.39 673.67 829.61 673.36 829.21 C 661.28 839.39 648.80 849.77 633.65 854.99 C 619.52 861.38 604.43 865.21 589.25 868.11 C 584.81 869.67 580.01 869.18 575.55 870.57 C 570.28 872.31 564.58 870.77 559.30 872.43 C 554.36 874.08 549.10 873.10 544.01 873.36 C 539.87 873.18 535.59 873.95 531.60 872.57 C 526.56 870.86 521.07 872.16 516.00 870.48 C 499.78 867.54 483.78 862.72 469.16 855.00 C 460.64 849.54 451.46 844.81 444.35 837.47 C 449.09 837.45 453.65 838.93 458.22 840.03 C 465.53 841.04 472.75 842.64 479.96 844.20 C 483.53 844.44 487.22 844.07 490.62 845.45 C 494.04 846.71 497.73 846.22 501.30 846.54 C 505.25 846.64 508.98 848.37 512.97 848.29 C 523.64 848.27 534.32 848.27 545.00 848.31 C 551.47 848.75 557.52 845.67 564.01 846.21 C 571.07 844.43 578.40 843.91 585.31 841.46 C 588.05 840.33 591.05 840.47 593.94 840.05 C 597.23 839.21 600.29 837.67 603.52 836.65 C 605.95 836.22 608.41 835.97 610.79 835.29 C 611.30 833.38 610.67 832.24 608.89 831.86 C 605.36 830.92 602.06 833.06 598.64 833.53 C 594.43 833.89 590.14 833.19 585.99 834.19 C 581.06 835.24 576.00 834.55 571.00 834.65 C 564.00 834.49 556.91 835.29 550.01 833.75 C 543.57 833.71 537.13 833.47 530.87 831.82 C 517.75 830.43 505.46 825.44 493.15 821.01 C 485.85 817.11 478.89 812.59 472.02 808.01 C 468.11 804.40 464.44 800.53 460.79 796.67 C 460.65 796.06 460.37 794.83 460.23 794.21 C 464.38 794.94 467.70 797.87 471.66 799.19 C 478.30 801.42 485.25 802.46 492.06 804.07 C 495.32 804.75 498.68 804.46 501.99 804.62 C 505.24 805.24 508.40 806.38 511.75 806.42 C 528.20 807.17 544.76 805.64 561.14 807.26 C 565.03 806.15 569.06 806.30 573.06 806.30 C 576.47 806.37 579.53 804.30 582.94 804.55 C 589.36 804.64 595.99 804.98 602.07 802.60 C 606.64 803.29 611.12 802.10 615.49 800.88 C 631.67 798.39 647.40 793.51 662.57 787.40 C 670.53 784.88 677.63 780.38 685.15 776.88 C 692.28 773.67 698.66 769.16 705.49 765.42 C 711.70 760.55 718.85 756.95 724.56 751.47 C 730.05 747.70 734.57 742.74 739.95 738.82 C 745.10 734.37 749.69 729.31 754.59 724.60 C 758.77 720.74 761.61 715.70 765.93 711.96 Z" />
</g>
</svg>
